solid OpenSCAD_Model
  facet normal -1 0 0
    outer loop
      vertex -15 -15 0
      vertex -15 15 5
      vertex -15 15 0
    endloop
  endfacet
  facet normal -1 -0 0
    outer loop
      vertex -15 15 5
      vertex -15 -15 0
      vertex -15 -15 5
    endloop
  endfacet
  facet normal -0 0 1
    outer loop
      vertex -15 15 5
      vertex -6 -15 5
      vertex -6 15 5
    endloop
  endfacet
  facet normal 0 0 1
    outer loop
      vertex -6 -15 5
      vertex -15 15 5
      vertex -15 -15 5
    endloop
  endfacet
  facet normal -0 0 1
    outer loop
      vertex 5.54102 15 5
      vertex 15 -15 5
      vertex 15 15 5
    endloop
  endfacet
  facet normal 0 0 1
    outer loop
      vertex 15 -15 5
      vertex 5.54102 15 5
      vertex 5.54102 -15 5
    endloop
  endfacet
  facet normal 1 -0 0
    outer loop
      vertex 15 -15 5
      vertex 15 15 0
      vertex 15 15 5
    endloop
  endfacet
  facet normal 1 0 0
    outer loop
      vertex 15 15 0
      vertex 15 -15 5
      vertex 15 -15 0
    endloop
  endfacet
  facet normal 0 1 -0
    outer loop
      vertex 15 15 0
      vertex 5.54102 15 5
      vertex 15 15 5
    endloop
  endfacet
  facet normal 0 1 0
    outer loop
      vertex 4.7082 15 4.58359
      vertex 15 15 0
      vertex -5 15 4.5
    endloop
  endfacet
  facet normal 0 1 0
    outer loop
      vertex 5.54102 15 5
      vertex 15 15 0
      vertex 4.7082 15 4.58359
    endloop
  endfacet
  facet normal 0 1 0
    outer loop
      vertex -0.125 15 14.25
      vertex 4.7082 15 4.58359
      vertex -5 15 4.5
    endloop
  endfacet
  facet normal 0 1 0
    outer loop
      vertex -15 15 0
      vertex -6 15 5
      vertex -5 15 4.5
    endloop
  endfacet
  facet normal 0 1 0
    outer loop
      vertex -15 15 0
      vertex -5 15 4.5
      vertex 15 15 0
    endloop
  endfacet
  facet normal 0 1 0
    outer loop
      vertex -6 15 5
      vertex -15 15 0
      vertex -15 15 5
    endloop
  endfacet
  facet normal 0 0 -1
    outer loop
      vertex -15 -15 0
      vertex 15 15 0
      vertex 15 -15 0
    endloop
  endfacet
  facet normal -0 0 -1
    outer loop
      vertex 15 15 0
      vertex -15 -15 0
      vertex -15 15 0
    endloop
  endfacet
  facet normal 0 -1 0
    outer loop
      vertex -15 -15 0
      vertex -6 -15 5
      vertex -15 -15 5
    endloop
  endfacet
  facet normal 0 -1 -0
    outer loop
      vertex -6 -15 5
      vertex -15 -15 0
      vertex -5 -15 4.5
    endloop
  endfacet
  facet normal 0 -1 -0
    outer loop
      vertex -0.125 -15 14.25
      vertex -5 -15 4.5
      vertex 4.7082 -15 4.58359
    endloop
  endfacet
  facet normal 0 -1 0
    outer loop
      vertex 15 -15 0
      vertex 5.54102 -15 5
      vertex 4.7082 -15 4.58359
    endloop
  endfacet
  facet normal 0 -1 0
    outer loop
      vertex -15 -15 0
      vertex 4.7082 -15 4.58359
      vertex -5 -15 4.5
    endloop
  endfacet
  facet normal 0 -1 0
    outer loop
      vertex 15 -15 0
      vertex 4.7082 -15 4.58359
      vertex -15 -15 0
    endloop
  endfacet
  facet normal 0 -1 0
    outer loop
      vertex 5.54102 -15 5
      vertex 15 -15 0
      vertex 15 -15 5
    endloop
  endfacet
  facet normal -0.447214 0 0.894427
    outer loop
      vertex 4.7082 15 4.58359
      vertex 5.54102 -15 5
      vertex 5.54102 15 5
    endloop
  endfacet
  facet normal -0.447214 0 0.894427
    outer loop
      vertex 5.54102 -15 5
      vertex 4.7082 15 4.58359
      vertex 4.7082 -15 4.58359
    endloop
  endfacet
  facet normal 0.894427 -0 0.447214
    outer loop
      vertex -0.125 -15 14.25
      vertex 4.7082 15 4.58359
      vertex -0.125 15 14.25
    endloop
  endfacet
  facet normal 0.894427 0 0.447214
    outer loop
      vertex 4.7082 15 4.58359
      vertex -0.125 -15 14.25
      vertex 4.7082 -15 4.58359
    endloop
  endfacet
  facet normal 0.447214 0 0.894427
    outer loop
      vertex -6 15 5
      vertex -5 -15 4.5
      vertex -5 15 4.5
    endloop
  endfacet
  facet normal 0.447214 0 0.894427
    outer loop
      vertex -5 -15 4.5
      vertex -6 15 5
      vertex -6 -15 5
    endloop
  endfacet
  facet normal -0.894427 0 0.447214
    outer loop
      vertex -5 -15 4.5
      vertex -0.125 15 14.25
      vertex -5 15 4.5
    endloop
  endfacet
  facet normal -0.894427 0 0.447214
    outer loop
      vertex -0.125 15 14.25
      vertex -5 -15 4.5
      vertex -0.125 -15 14.25
    endloop
  endfacet
endsolid OpenSCAD_Model
