solid Default
  facet normal -1.000000e+00 0.000000e+00 0.000000e+00
    outer loop
      vertex 5.000000e+00 -3.500000e+01 0.000000e+00
      vertex 5.000000e+00 -5.000000e+00 5.000000e+00
      vertex 5.000000e+00 -5.000000e+00 0.000000e+00
    endloop
  endfacet
  facet normal -1.000000e+00 0.000000e+00 0.000000e+00
    outer loop
      vertex 5.000000e+00 -5.000000e+00 5.000000e+00
      vertex 5.000000e+00 -3.500000e+01 0.000000e+00
      vertex 5.000000e+00 -3.500000e+01 5.000000e+00
    endloop
  endfacet
  facet normal 0.000000e+00 0.000000e+00 1.000000e+00
    outer loop
      vertex 5.000000e+00 -5.000000e+00 5.000000e+00
      vertex 1.500000e+01 -3.500000e+01 5.000000e+00
      vertex 1.500000e+01 -5.000000e+00 5.000000e+00
    endloop
  endfacet
  facet normal 0.000000e+00 0.000000e+00 1.000000e+00
    outer loop
      vertex 1.500000e+01 -3.500000e+01 5.000000e+00
      vertex 5.000000e+00 -5.000000e+00 5.000000e+00
      vertex 5.000000e+00 -3.500000e+01 5.000000e+00
    endloop
  endfacet
  facet normal 0.000000e+00 0.000000e+00 1.000000e+00
    outer loop
      vertex 2.500000e+01 -5.000000e+00 5.000000e+00
      vertex 3.500000e+01 -3.500000e+01 5.000000e+00
      vertex 3.500000e+01 -5.000000e+00 5.000000e+00
    endloop
  endfacet
  facet normal 0.000000e+00 0.000000e+00 1.000000e+00
    outer loop
      vertex 3.500000e+01 -3.500000e+01 5.000000e+00
      vertex 2.500000e+01 -5.000000e+00 5.000000e+00
      vertex 2.500000e+01 -3.500000e+01 5.000000e+00
    endloop
  endfacet
  facet normal 1.000000e+00 0.000000e+00 0.000000e+00
    outer loop
      vertex 3.500000e+01 -3.500000e+01 5.000000e+00
      vertex 3.500000e+01 -5.000000e+00 0.000000e+00
      vertex 3.500000e+01 -5.000000e+00 5.000000e+00
    endloop
  endfacet
  facet normal 1.000000e+00 0.000000e+00 0.000000e+00
    outer loop
      vertex 3.500000e+01 -5.000000e+00 0.000000e+00
      vertex 3.500000e+01 -3.500000e+01 5.000000e+00
      vertex 3.500000e+01 -3.500000e+01 0.000000e+00
    endloop
  endfacet
  facet normal 0.000000e+00 1.000000e+00 0.000000e+00
    outer loop
      vertex 3.500000e+01 -5.000000e+00 0.000000e+00
      vertex 2.500000e+01 -5.000000e+00 5.000000e+00
      vertex 3.500000e+01 -5.000000e+00 5.000000e+00
    endloop
  endfacet
  facet normal 0.000000e+00 1.000000e+00 0.000000e+00
    outer loop
      vertex 2.500000e+01 -5.000000e+00 5.000000e+00
      vertex 3.500000e+01 -5.000000e+00 0.000000e+00
      vertex 1.500000e+01 -5.000000e+00 5.000000e+00
    endloop
  endfacet
  facet normal 0.000000e+00 1.000000e+00 0.000000e+00
    outer loop
      vertex 5.000000e+00 -5.000000e+00 0.000000e+00
      vertex 1.500000e+01 -5.000000e+00 5.000000e+00
      vertex 3.500000e+01 -5.000000e+00 0.000000e+00
    endloop
  endfacet
  facet normal 0.000000e+00 1.000000e+00 0.000000e+00
    outer loop
      vertex 1.500000e+01 -5.000000e+00 5.000000e+00
      vertex 5.000000e+00 -5.000000e+00 0.000000e+00
      vertex 5.000000e+00 -5.000000e+00 5.000000e+00
    endloop
  endfacet
  facet normal 0.000000e+00 1.000000e+00 0.000000e+00
    outer loop
      vertex 2.500000e+01 -5.000000e+00 5.000000e+00
      vertex 1.500000e+01 -5.000000e+00 1.500000e+01
      vertex 2.500000e+01 -5.000000e+00 1.500000e+01
    endloop
  endfacet
  facet normal 0.000000e+00 1.000000e+00 0.000000e+00
    outer loop
      vertex 1.500000e+01 -5.000000e+00 1.500000e+01
      vertex 2.500000e+01 -5.000000e+00 5.000000e+00
      vertex 1.500000e+01 -5.000000e+00 5.000000e+00
    endloop
  endfacet
  facet normal 0.000000e+00 0.000000e+00 -1.000000e+00
    outer loop
      vertex 5.000000e+00 -3.500000e+01 0.000000e+00
      vertex 3.500000e+01 -5.000000e+00 0.000000e+00
      vertex 3.500000e+01 -3.500000e+01 0.000000e+00
    endloop
  endfacet
  facet normal 0.000000e+00 0.000000e+00 -1.000000e+00
    outer loop
      vertex 3.500000e+01 -5.000000e+00 0.000000e+00
      vertex 5.000000e+00 -3.500000e+01 0.000000e+00
      vertex 5.000000e+00 -5.000000e+00 0.000000e+00
    endloop
  endfacet
  facet normal 0.000000e+00 -1.000000e+00 0.000000e+00
    outer loop
      vertex 5.000000e+00 -3.500000e+01 0.000000e+00
      vertex 1.500000e+01 -3.500000e+01 5.000000e+00
      vertex 5.000000e+00 -3.500000e+01 5.000000e+00
    endloop
  endfacet
  facet normal 0.000000e+00 -1.000000e+00 0.000000e+00
    outer loop
      vertex 1.500000e+01 -3.500000e+01 5.000000e+00
      vertex 5.000000e+00 -3.500000e+01 0.000000e+00
      vertex 2.500000e+01 -3.500000e+01 5.000000e+00
    endloop
  endfacet
  facet normal 0.000000e+00 -1.000000e+00 0.000000e+00
    outer loop
      vertex 3.500000e+01 -3.500000e+01 0.000000e+00
      vertex 2.500000e+01 -3.500000e+01 5.000000e+00
      vertex 5.000000e+00 -3.500000e+01 0.000000e+00
    endloop
  endfacet
  facet normal 0.000000e+00 -1.000000e+00 0.000000e+00
    outer loop
      vertex 2.500000e+01 -3.500000e+01 5.000000e+00
      vertex 3.500000e+01 -3.500000e+01 0.000000e+00
      vertex 3.500000e+01 -3.500000e+01 5.000000e+00
    endloop
  endfacet
  facet normal 0.000000e+00 -1.000000e+00 0.000000e+00
    outer loop
      vertex 1.500000e+01 -3.500000e+01 5.000000e+00
      vertex 2.500000e+01 -3.500000e+01 1.500000e+01
      vertex 1.500000e+01 -3.500000e+01 1.500000e+01
    endloop
  endfacet
  facet normal 0.000000e+00 -1.000000e+00 0.000000e+00
    outer loop
      vertex 2.500000e+01 -3.500000e+01 1.500000e+01
      vertex 1.500000e+01 -3.500000e+01 5.000000e+00
      vertex 2.500000e+01 -3.500000e+01 5.000000e+00
    endloop
  endfacet
  facet normal -1.000000e+00 0.000000e+00 0.000000e+00
    outer loop
      vertex 1.500000e+01 -3.500000e+01 5.000000e+00
      vertex 1.500000e+01 -5.000000e+00 1.500000e+01
      vertex 1.500000e+01 -5.000000e+00 5.000000e+00
    endloop
  endfacet
  facet normal -1.000000e+00 0.000000e+00 0.000000e+00
    outer loop
      vertex 1.500000e+01 -5.000000e+00 1.500000e+01
      vertex 1.500000e+01 -3.500000e+01 5.000000e+00
      vertex 1.500000e+01 -3.500000e+01 1.500000e+01
    endloop
  endfacet
  facet normal 0.000000e+00 0.000000e+00 1.000000e+00
    outer loop
      vertex 1.500000e+01 -5.000000e+00 1.500000e+01
      vertex 2.500000e+01 -3.500000e+01 1.500000e+01
      vertex 2.500000e+01 -5.000000e+00 1.500000e+01
    endloop
  endfacet
  facet normal 0.000000e+00 0.000000e+00 1.000000e+00
    outer loop
      vertex 2.500000e+01 -3.500000e+01 1.500000e+01
      vertex 1.500000e+01 -5.000000e+00 1.500000e+01
      vertex 1.500000e+01 -3.500000e+01 1.500000e+01
    endloop
  endfacet
  facet normal 1.000000e+00 0.000000e+00 0.000000e+00
    outer loop
      vertex 2.500000e+01 -3.500000e+01 1.500000e+01
      vertex 2.500000e+01 -5.000000e+00 5.000000e+00
      vertex 2.500000e+01 -5.000000e+00 1.500000e+01
    endloop
  endfacet
  facet normal 1.000000e+00 0.000000e+00 0.000000e+00
    outer loop
      vertex 2.500000e+01 -5.000000e+00 5.000000e+00
      vertex 2.500000e+01 -3.500000e+01 1.500000e+01
      vertex 2.500000e+01 -3.500000e+01 5.000000e+00
    endloop
  endfacet
  facet normal -1.000000e+00 0.000000e+00 0.000000e+00
    outer loop
      vertex -3.500000e+01 -3.500000e+01 0.000000e+00
      vertex -3.500000e+01 -5.000000e+00 5.000000e+00
      vertex -3.500000e+01 -5.000000e+00 0.000000e+00
    endloop
  endfacet
  facet normal -1.000000e+00 0.000000e+00 0.000000e+00
    outer loop
      vertex -3.500000e+01 -5.000000e+00 5.000000e+00
      vertex -3.500000e+01 -3.500000e+01 0.000000e+00
      vertex -3.500000e+01 -3.500000e+01 5.000000e+00
    endloop
  endfacet
  facet normal 0.000000e+00 0.000000e+00 1.000000e+00
    outer loop
      vertex -3.500000e+01 -5.000000e+00 5.000000e+00
      vertex -2.500000e+01 -3.500000e+01 5.000000e+00
      vertex -2.500000e+01 -5.000000e+00 5.000000e+00
    endloop
  endfacet
  facet normal 0.000000e+00 0.000000e+00 1.000000e+00
    outer loop
      vertex -2.500000e+01 -3.500000e+01 5.000000e+00
      vertex -3.500000e+01 -5.000000e+00 5.000000e+00
      vertex -3.500000e+01 -3.500000e+01 5.000000e+00
    endloop
  endfacet
  facet normal 0.000000e+00 0.000000e+00 1.000000e+00
    outer loop
      vertex -1.500000e+01 -5.000000e+00 5.000000e+00
      vertex -5.000000e+00 -3.500000e+01 5.000000e+00
      vertex -5.000000e+00 -5.000000e+00 5.000000e+00
    endloop
  endfacet
  facet normal 0.000000e+00 0.000000e+00 1.000000e+00
    outer loop
      vertex -5.000000e+00 -3.500000e+01 5.000000e+00
      vertex -1.500000e+01 -5.000000e+00 5.000000e+00
      vertex -1.500000e+01 -3.500000e+01 5.000000e+00
    endloop
  endfacet
  facet normal 1.000000e+00 0.000000e+00 0.000000e+00
    outer loop
      vertex -5.000000e+00 -3.500000e+01 5.000000e+00
      vertex -5.000000e+00 -5.000000e+00 0.000000e+00
      vertex -5.000000e+00 -5.000000e+00 5.000000e+00
    endloop
  endfacet
  facet normal 1.000000e+00 0.000000e+00 0.000000e+00
    outer loop
      vertex -5.000000e+00 -5.000000e+00 0.000000e+00
      vertex -5.000000e+00 -3.500000e+01 5.000000e+00
      vertex -5.000000e+00 -3.500000e+01 0.000000e+00
    endloop
  endfacet
  facet normal 0.000000e+00 1.000000e+00 0.000000e+00
    outer loop
      vertex -5.000000e+00 -5.000000e+00 0.000000e+00
      vertex -1.500000e+01 -5.000000e+00 5.000000e+00
      vertex -5.000000e+00 -5.000000e+00 5.000000e+00
    endloop
  endfacet
  facet normal 0.000000e+00 1.000000e+00 0.000000e+00
    outer loop
      vertex -1.500000e+01 -5.000000e+00 5.000000e+00
      vertex -5.000000e+00 -5.000000e+00 0.000000e+00
      vertex -2.500000e+01 -5.000000e+00 5.000000e+00
    endloop
  endfacet
  facet normal 0.000000e+00 1.000000e+00 0.000000e+00
    outer loop
      vertex -3.500000e+01 -5.000000e+00 0.000000e+00
      vertex -2.500000e+01 -5.000000e+00 5.000000e+00
      vertex -5.000000e+00 -5.000000e+00 0.000000e+00
    endloop
  endfacet
  facet normal 0.000000e+00 1.000000e+00 0.000000e+00
    outer loop
      vertex -2.500000e+01 -5.000000e+00 5.000000e+00
      vertex -3.500000e+01 -5.000000e+00 0.000000e+00
      vertex -3.500000e+01 -5.000000e+00 5.000000e+00
    endloop
  endfacet
  facet normal 0.000000e+00 1.000000e+00 0.000000e+00
    outer loop
      vertex -1.500000e+01 -5.000000e+00 5.000000e+00
      vertex -2.500000e+01 -5.000000e+00 1.500000e+01
      vertex -1.500000e+01 -5.000000e+00 1.500000e+01
    endloop
  endfacet
  facet normal 0.000000e+00 1.000000e+00 0.000000e+00
    outer loop
      vertex -2.500000e+01 -5.000000e+00 1.500000e+01
      vertex -1.500000e+01 -5.000000e+00 5.000000e+00
      vertex -2.500000e+01 -5.000000e+00 5.000000e+00
    endloop
  endfacet
  facet normal 0.000000e+00 0.000000e+00 -1.000000e+00
    outer loop
      vertex -3.500000e+01 -3.500000e+01 0.000000e+00
      vertex -5.000000e+00 -5.000000e+00 0.000000e+00
      vertex -5.000000e+00 -3.500000e+01 0.000000e+00
    endloop
  endfacet
  facet normal 0.000000e+00 0.000000e+00 -1.000000e+00
    outer loop
      vertex -5.000000e+00 -5.000000e+00 0.000000e+00
      vertex -3.500000e+01 -3.500000e+01 0.000000e+00
      vertex -3.500000e+01 -5.000000e+00 0.000000e+00
    endloop
  endfacet
  facet normal 0.000000e+00 -1.000000e+00 0.000000e+00
    outer loop
      vertex -3.500000e+01 -3.500000e+01 0.000000e+00
      vertex -2.500000e+01 -3.500000e+01 5.000000e+00
      vertex -3.500000e+01 -3.500000e+01 5.000000e+00
    endloop
  endfacet
  facet normal 0.000000e+00 -1.000000e+00 0.000000e+00
    outer loop
      vertex -2.500000e+01 -3.500000e+01 5.000000e+00
      vertex -3.500000e+01 -3.500000e+01 0.000000e+00
      vertex -1.500000e+01 -3.500000e+01 5.000000e+00
    endloop
  endfacet
  facet normal 0.000000e+00 -1.000000e+00 0.000000e+00
    outer loop
      vertex -5.000000e+00 -3.500000e+01 0.000000e+00
      vertex -1.500000e+01 -3.500000e+01 5.000000e+00
      vertex -3.500000e+01 -3.500000e+01 0.000000e+00
    endloop
  endfacet
  facet normal 0.000000e+00 -1.000000e+00 0.000000e+00
    outer loop
      vertex -1.500000e+01 -3.500000e+01 5.000000e+00
      vertex -5.000000e+00 -3.500000e+01 0.000000e+00
      vertex -5.000000e+00 -3.500000e+01 5.000000e+00
    endloop
  endfacet
  facet normal 0.000000e+00 -1.000000e+00 0.000000e+00
    outer loop
      vertex -2.500000e+01 -3.500000e+01 5.000000e+00
      vertex -1.500000e+01 -3.500000e+01 1.500000e+01
      vertex -2.500000e+01 -3.500000e+01 1.500000e+01
    endloop
  endfacet
  facet normal 0.000000e+00 -1.000000e+00 0.000000e+00
    outer loop
      vertex -1.500000e+01 -3.500000e+01 1.500000e+01
      vertex -2.500000e+01 -3.500000e+01 5.000000e+00
      vertex -1.500000e+01 -3.500000e+01 5.000000e+00
    endloop
  endfacet
  facet normal -1.000000e+00 0.000000e+00 0.000000e+00
    outer loop
      vertex -2.500000e+01 -3.500000e+01 5.000000e+00
      vertex -2.500000e+01 -5.000000e+00 1.500000e+01
      vertex -2.500000e+01 -5.000000e+00 5.000000e+00
    endloop
  endfacet
  facet normal -1.000000e+00 0.000000e+00 0.000000e+00
    outer loop
      vertex -2.500000e+01 -5.000000e+00 1.500000e+01
      vertex -2.500000e+01 -3.500000e+01 5.000000e+00
      vertex -2.500000e+01 -3.500000e+01 1.500000e+01
    endloop
  endfacet
  facet normal 0.000000e+00 0.000000e+00 1.000000e+00
    outer loop
      vertex -2.500000e+01 -5.000000e+00 1.500000e+01
      vertex -1.500000e+01 -3.500000e+01 1.500000e+01
      vertex -1.500000e+01 -5.000000e+00 1.500000e+01
    endloop
  endfacet
  facet normal 0.000000e+00 0.000000e+00 1.000000e+00
    outer loop
      vertex -1.500000e+01 -3.500000e+01 1.500000e+01
      vertex -2.500000e+01 -5.000000e+00 1.500000e+01
      vertex -2.500000e+01 -3.500000e+01 1.500000e+01
    endloop
  endfacet
  facet normal 1.000000e+00 0.000000e+00 0.000000e+00
    outer loop
      vertex -1.500000e+01 -3.500000e+01 1.500000e+01
      vertex -1.500000e+01 -5.000000e+00 5.000000e+00
      vertex -1.500000e+01 -5.000000e+00 1.500000e+01
    endloop
  endfacet
  facet normal 1.000000e+00 0.000000e+00 0.000000e+00
    outer loop
      vertex -1.500000e+01 -5.000000e+00 5.000000e+00
      vertex -1.500000e+01 -3.500000e+01 1.500000e+01
      vertex -1.500000e+01 -3.500000e+01 5.000000e+00
    endloop
  endfacet
  facet normal -1.000000e+00 0.000000e+00 0.000000e+00
    outer loop
      vertex -7.500000e+01 -3.500000e+01 0.000000e+00
      vertex -7.500000e+01 -5.000000e+00 5.000000e+00
      vertex -7.500000e+01 -5.000000e+00 0.000000e+00
    endloop
  endfacet
  facet normal -1.000000e+00 0.000000e+00 0.000000e+00
    outer loop
      vertex -7.500000e+01 -5.000000e+00 5.000000e+00
      vertex -7.500000e+01 -3.500000e+01 0.000000e+00
      vertex -7.500000e+01 -3.500000e+01 5.000000e+00
    endloop
  endfacet
  facet normal 0.000000e+00 0.000000e+00 1.000000e+00
    outer loop
      vertex -7.500000e+01 -5.000000e+00 5.000000e+00
      vertex -6.500000e+01 -3.500000e+01 5.000000e+00
      vertex -6.500000e+01 -5.000000e+00 5.000000e+00
    endloop
  endfacet
  facet normal 0.000000e+00 0.000000e+00 1.000000e+00
    outer loop
      vertex -6.500000e+01 -3.500000e+01 5.000000e+00
      vertex -7.500000e+01 -5.000000e+00 5.000000e+00
      vertex -7.500000e+01 -3.500000e+01 5.000000e+00
    endloop
  endfacet
  facet normal 0.000000e+00 0.000000e+00 1.000000e+00
    outer loop
      vertex -5.500000e+01 -5.000000e+00 5.000000e+00
      vertex -4.500000e+01 -3.500000e+01 5.000000e+00
      vertex -4.500000e+01 -5.000000e+00 5.000000e+00
    endloop
  endfacet
  facet normal 0.000000e+00 0.000000e+00 1.000000e+00
    outer loop
      vertex -4.500000e+01 -3.500000e+01 5.000000e+00
      vertex -5.500000e+01 -5.000000e+00 5.000000e+00
      vertex -5.500000e+01 -3.500000e+01 5.000000e+00
    endloop
  endfacet
  facet normal 1.000000e+00 0.000000e+00 0.000000e+00
    outer loop
      vertex -4.500000e+01 -3.500000e+01 5.000000e+00
      vertex -4.500000e+01 -5.000000e+00 0.000000e+00
      vertex -4.500000e+01 -5.000000e+00 5.000000e+00
    endloop
  endfacet
  facet normal 1.000000e+00 0.000000e+00 0.000000e+00
    outer loop
      vertex -4.500000e+01 -5.000000e+00 0.000000e+00
      vertex -4.500000e+01 -3.500000e+01 5.000000e+00
      vertex -4.500000e+01 -3.500000e+01 0.000000e+00
    endloop
  endfacet
  facet normal 0.000000e+00 1.000000e+00 0.000000e+00
    outer loop
      vertex -4.500000e+01 -5.000000e+00 0.000000e+00
      vertex -5.500000e+01 -5.000000e+00 5.000000e+00
      vertex -4.500000e+01 -5.000000e+00 5.000000e+00
    endloop
  endfacet
  facet normal 0.000000e+00 1.000000e+00 0.000000e+00
    outer loop
      vertex -5.500000e+01 -5.000000e+00 5.000000e+00
      vertex -4.500000e+01 -5.000000e+00 0.000000e+00
      vertex -6.500000e+01 -5.000000e+00 5.000000e+00
    endloop
  endfacet
  facet normal 0.000000e+00 1.000000e+00 0.000000e+00
    outer loop
      vertex -7.500000e+01 -5.000000e+00 0.000000e+00
      vertex -6.500000e+01 -5.000000e+00 5.000000e+00
      vertex -4.500000e+01 -5.000000e+00 0.000000e+00
    endloop
  endfacet
  facet normal 0.000000e+00 1.000000e+00 0.000000e+00
    outer loop
      vertex -6.500000e+01 -5.000000e+00 5.000000e+00
      vertex -7.500000e+01 -5.000000e+00 0.000000e+00
      vertex -7.500000e+01 -5.000000e+00 5.000000e+00
    endloop
  endfacet
  facet normal 0.000000e+00 1.000000e+00 0.000000e+00
    outer loop
      vertex -5.500000e+01 -5.000000e+00 5.000000e+00
      vertex -6.500000e+01 -5.000000e+00 1.500000e+01
      vertex -5.500000e+01 -5.000000e+00 1.500000e+01
    endloop
  endfacet
  facet normal 0.000000e+00 1.000000e+00 0.000000e+00
    outer loop
      vertex -6.500000e+01 -5.000000e+00 1.500000e+01
      vertex -5.500000e+01 -5.000000e+00 5.000000e+00
      vertex -6.500000e+01 -5.000000e+00 5.000000e+00
    endloop
  endfacet
  facet normal 0.000000e+00 0.000000e+00 -1.000000e+00
    outer loop
      vertex -7.500000e+01 -3.500000e+01 0.000000e+00
      vertex -4.500000e+01 -5.000000e+00 0.000000e+00
      vertex -4.500000e+01 -3.500000e+01 0.000000e+00
    endloop
  endfacet
  facet normal 0.000000e+00 0.000000e+00 -1.000000e+00
    outer loop
      vertex -4.500000e+01 -5.000000e+00 0.000000e+00
      vertex -7.500000e+01 -3.500000e+01 0.000000e+00
      vertex -7.500000e+01 -5.000000e+00 0.000000e+00
    endloop
  endfacet
  facet normal 0.000000e+00 -1.000000e+00 0.000000e+00
    outer loop
      vertex -7.500000e+01 -3.500000e+01 0.000000e+00
      vertex -6.500000e+01 -3.500000e+01 5.000000e+00
      vertex -7.500000e+01 -3.500000e+01 5.000000e+00
    endloop
  endfacet
  facet normal 0.000000e+00 -1.000000e+00 0.000000e+00
    outer loop
      vertex -6.500000e+01 -3.500000e+01 5.000000e+00
      vertex -7.500000e+01 -3.500000e+01 0.000000e+00
      vertex -5.500000e+01 -3.500000e+01 5.000000e+00
    endloop
  endfacet
  facet normal 0.000000e+00 -1.000000e+00 0.000000e+00
    outer loop
      vertex -4.500000e+01 -3.500000e+01 0.000000e+00
      vertex -5.500000e+01 -3.500000e+01 5.000000e+00
      vertex -7.500000e+01 -3.500000e+01 0.000000e+00
    endloop
  endfacet
  facet normal 0.000000e+00 -1.000000e+00 0.000000e+00
    outer loop
      vertex -5.500000e+01 -3.500000e+01 5.000000e+00
      vertex -4.500000e+01 -3.500000e+01 0.000000e+00
      vertex -4.500000e+01 -3.500000e+01 5.000000e+00
    endloop
  endfacet
  facet normal 0.000000e+00 -1.000000e+00 0.000000e+00
    outer loop
      vertex -6.500000e+01 -3.500000e+01 5.000000e+00
      vertex -5.500000e+01 -3.500000e+01 1.500000e+01
      vertex -6.500000e+01 -3.500000e+01 1.500000e+01
    endloop
  endfacet
  facet normal 0.000000e+00 -1.000000e+00 0.000000e+00
    outer loop
      vertex -5.500000e+01 -3.500000e+01 1.500000e+01
      vertex -6.500000e+01 -3.500000e+01 5.000000e+00
      vertex -5.500000e+01 -3.500000e+01 5.000000e+00
    endloop
  endfacet
  facet normal -1.000000e+00 0.000000e+00 0.000000e+00
    outer loop
      vertex -6.500000e+01 -3.500000e+01 5.000000e+00
      vertex -6.500000e+01 -5.000000e+00 1.500000e+01
      vertex -6.500000e+01 -5.000000e+00 5.000000e+00
    endloop
  endfacet
  facet normal -1.000000e+00 0.000000e+00 0.000000e+00
    outer loop
      vertex -6.500000e+01 -5.000000e+00 1.500000e+01
      vertex -6.500000e+01 -3.500000e+01 5.000000e+00
      vertex -6.500000e+01 -3.500000e+01 1.500000e+01
    endloop
  endfacet
  facet normal 0.000000e+00 0.000000e+00 1.000000e+00
    outer loop
      vertex -6.500000e+01 -5.000000e+00 1.500000e+01
      vertex -5.500000e+01 -3.500000e+01 1.500000e+01
      vertex -5.500000e+01 -5.000000e+00 1.500000e+01
    endloop
  endfacet
  facet normal 0.000000e+00 0.000000e+00 1.000000e+00
    outer loop
      vertex -5.500000e+01 -3.500000e+01 1.500000e+01
      vertex -6.500000e+01 -5.000000e+00 1.500000e+01
      vertex -6.500000e+01 -3.500000e+01 1.500000e+01
    endloop
  endfacet
  facet normal 1.000000e+00 0.000000e+00 0.000000e+00
    outer loop
      vertex -5.500000e+01 -3.500000e+01 1.500000e+01
      vertex -5.500000e+01 -5.000000e+00 5.000000e+00
      vertex -5.500000e+01 -5.000000e+00 1.500000e+01
    endloop
  endfacet
  facet normal 1.000000e+00 0.000000e+00 0.000000e+00
    outer loop
      vertex -5.500000e+01 -5.000000e+00 5.000000e+00
      vertex -5.500000e+01 -3.500000e+01 1.500000e+01
      vertex -5.500000e+01 -3.500000e+01 5.000000e+00
    endloop
  endfacet
  facet normal -1.000000e+00 0.000000e+00 0.000000e+00
    outer loop
      vertex 4.500000e+01 -3.500000e+01 0.000000e+00
      vertex 4.500000e+01 -5.000000e+00 5.000000e+00
      vertex 4.500000e+01 -5.000000e+00 0.000000e+00
    endloop
  endfacet
  facet normal -1.000000e+00 0.000000e+00 0.000000e+00
    outer loop
      vertex 4.500000e+01 -5.000000e+00 5.000000e+00
      vertex 4.500000e+01 -3.500000e+01 0.000000e+00
      vertex 4.500000e+01 -3.500000e+01 5.000000e+00
    endloop
  endfacet
  facet normal 0.000000e+00 0.000000e+00 1.000000e+00
    outer loop
      vertex 4.500000e+01 -5.000000e+00 5.000000e+00
      vertex 5.500000e+01 -3.500000e+01 5.000000e+00
      vertex 5.500000e+01 -5.000000e+00 5.000000e+00
    endloop
  endfacet
  facet normal 0.000000e+00 0.000000e+00 1.000000e+00
    outer loop
      vertex 5.500000e+01 -3.500000e+01 5.000000e+00
      vertex 4.500000e+01 -5.000000e+00 5.000000e+00
      vertex 4.500000e+01 -3.500000e+01 5.000000e+00
    endloop
  endfacet
  facet normal 0.000000e+00 0.000000e+00 1.000000e+00
    outer loop
      vertex 6.500000e+01 -5.000000e+00 5.000000e+00
      vertex 7.500000e+01 -3.500000e+01 5.000000e+00
      vertex 7.500000e+01 -5.000000e+00 5.000000e+00
    endloop
  endfacet
  facet normal 0.000000e+00 0.000000e+00 1.000000e+00
    outer loop
      vertex 7.500000e+01 -3.500000e+01 5.000000e+00
      vertex 6.500000e+01 -5.000000e+00 5.000000e+00
      vertex 6.500000e+01 -3.500000e+01 5.000000e+00
    endloop
  endfacet
  facet normal 1.000000e+00 0.000000e+00 0.000000e+00
    outer loop
      vertex 7.500000e+01 -3.500000e+01 5.000000e+00
      vertex 7.500000e+01 -5.000000e+00 0.000000e+00
      vertex 7.500000e+01 -5.000000e+00 5.000000e+00
    endloop
  endfacet
  facet normal 1.000000e+00 0.000000e+00 0.000000e+00
    outer loop
      vertex 7.500000e+01 -5.000000e+00 0.000000e+00
      vertex 7.500000e+01 -3.500000e+01 5.000000e+00
      vertex 7.500000e+01 -3.500000e+01 0.000000e+00
    endloop
  endfacet
  facet normal 0.000000e+00 1.000000e+00 0.000000e+00
    outer loop
      vertex 7.500000e+01 -5.000000e+00 0.000000e+00
      vertex 6.500000e+01 -5.000000e+00 5.000000e+00
      vertex 7.500000e+01 -5.000000e+00 5.000000e+00
    endloop
  endfacet
  facet normal 0.000000e+00 1.000000e+00 0.000000e+00
    outer loop
      vertex 6.500000e+01 -5.000000e+00 5.000000e+00
      vertex 7.500000e+01 -5.000000e+00 0.000000e+00
      vertex 5.500000e+01 -5.000000e+00 5.000000e+00
    endloop
  endfacet
  facet normal 0.000000e+00 1.000000e+00 0.000000e+00
    outer loop
      vertex 4.500000e+01 -5.000000e+00 0.000000e+00
      vertex 5.500000e+01 -5.000000e+00 5.000000e+00
      vertex 7.500000e+01 -5.000000e+00 0.000000e+00
    endloop
  endfacet
  facet normal 0.000000e+00 1.000000e+00 0.000000e+00
    outer loop
      vertex 5.500000e+01 -5.000000e+00 5.000000e+00
      vertex 4.500000e+01 -5.000000e+00 0.000000e+00
      vertex 4.500000e+01 -5.000000e+00 5.000000e+00
    endloop
  endfacet
  facet normal 0.000000e+00 1.000000e+00 0.000000e+00
    outer loop
      vertex 6.500000e+01 -5.000000e+00 5.000000e+00
      vertex 5.500000e+01 -5.000000e+00 1.500000e+01
      vertex 6.500000e+01 -5.000000e+00 1.500000e+01
    endloop
  endfacet
  facet normal 0.000000e+00 1.000000e+00 0.000000e+00
    outer loop
      vertex 5.500000e+01 -5.000000e+00 1.500000e+01
      vertex 6.500000e+01 -5.000000e+00 5.000000e+00
      vertex 5.500000e+01 -5.000000e+00 5.000000e+00
    endloop
  endfacet
  facet normal 0.000000e+00 0.000000e+00 -1.000000e+00
    outer loop
      vertex 4.500000e+01 -3.500000e+01 0.000000e+00
      vertex 7.500000e+01 -5.000000e+00 0.000000e+00
      vertex 7.500000e+01 -3.500000e+01 0.000000e+00
    endloop
  endfacet
  facet normal 0.000000e+00 0.000000e+00 -1.000000e+00
    outer loop
      vertex 7.500000e+01 -5.000000e+00 0.000000e+00
      vertex 4.500000e+01 -3.500000e+01 0.000000e+00
      vertex 4.500000e+01 -5.000000e+00 0.000000e+00
    endloop
  endfacet
  facet normal 0.000000e+00 -1.000000e+00 0.000000e+00
    outer loop
      vertex 4.500000e+01 -3.500000e+01 0.000000e+00
      vertex 5.500000e+01 -3.500000e+01 5.000000e+00
      vertex 4.500000e+01 -3.500000e+01 5.000000e+00
    endloop
  endfacet
  facet normal 0.000000e+00 -1.000000e+00 0.000000e+00
    outer loop
      vertex 5.500000e+01 -3.500000e+01 5.000000e+00
      vertex 4.500000e+01 -3.500000e+01 0.000000e+00
      vertex 6.500000e+01 -3.500000e+01 5.000000e+00
    endloop
  endfacet
  facet normal 0.000000e+00 -1.000000e+00 0.000000e+00
    outer loop
      vertex 7.500000e+01 -3.500000e+01 0.000000e+00
      vertex 6.500000e+01 -3.500000e+01 5.000000e+00
      vertex 4.500000e+01 -3.500000e+01 0.000000e+00
    endloop
  endfacet
  facet normal 0.000000e+00 -1.000000e+00 0.000000e+00
    outer loop
      vertex 6.500000e+01 -3.500000e+01 5.000000e+00
      vertex 7.500000e+01 -3.500000e+01 0.000000e+00
      vertex 7.500000e+01 -3.500000e+01 5.000000e+00
    endloop
  endfacet
  facet normal 0.000000e+00 -1.000000e+00 0.000000e+00
    outer loop
      vertex 5.500000e+01 -3.500000e+01 5.000000e+00
      vertex 6.500000e+01 -3.500000e+01 1.500000e+01
      vertex 5.500000e+01 -3.500000e+01 1.500000e+01
    endloop
  endfacet
  facet normal 0.000000e+00 -1.000000e+00 0.000000e+00
    outer loop
      vertex 6.500000e+01 -3.500000e+01 1.500000e+01
      vertex 5.500000e+01 -3.500000e+01 5.000000e+00
      vertex 6.500000e+01 -3.500000e+01 5.000000e+00
    endloop
  endfacet
  facet normal -1.000000e+00 0.000000e+00 0.000000e+00
    outer loop
      vertex 5.500000e+01 -3.500000e+01 5.000000e+00
      vertex 5.500000e+01 -5.000000e+00 1.500000e+01
      vertex 5.500000e+01 -5.000000e+00 5.000000e+00
    endloop
  endfacet
  facet normal -1.000000e+00 0.000000e+00 0.000000e+00
    outer loop
      vertex 5.500000e+01 -5.000000e+00 1.500000e+01
      vertex 5.500000e+01 -3.500000e+01 5.000000e+00
      vertex 5.500000e+01 -3.500000e+01 1.500000e+01
    endloop
  endfacet
  facet normal 0.000000e+00 0.000000e+00 1.000000e+00
    outer loop
      vertex 5.500000e+01 -5.000000e+00 1.500000e+01
      vertex 6.500000e+01 -3.500000e+01 1.500000e+01
      vertex 6.500000e+01 -5.000000e+00 1.500000e+01
    endloop
  endfacet
  facet normal 0.000000e+00 0.000000e+00 1.000000e+00
    outer loop
      vertex 6.500000e+01 -3.500000e+01 1.500000e+01
      vertex 5.500000e+01 -5.000000e+00 1.500000e+01
      vertex 5.500000e+01 -3.500000e+01 1.500000e+01
    endloop
  endfacet
  facet normal 1.000000e+00 0.000000e+00 0.000000e+00
    outer loop
      vertex 6.500000e+01 -3.500000e+01 1.500000e+01
      vertex 6.500000e+01 -5.000000e+00 5.000000e+00
      vertex 6.500000e+01 -5.000000e+00 1.500000e+01
    endloop
  endfacet
  facet normal 1.000000e+00 0.000000e+00 0.000000e+00
    outer loop
      vertex 6.500000e+01 -5.000000e+00 5.000000e+00
      vertex 6.500000e+01 -3.500000e+01 1.500000e+01
      vertex 6.500000e+01 -3.500000e+01 5.000000e+00
    endloop
  endfacet
  facet normal -1.000000e+00 0.000000e+00 0.000000e+00
    outer loop
      vertex 5.000000e+00 5.000000e+00 0.000000e+00
      vertex 5.000000e+00 3.500000e+01 5.000000e+00
      vertex 5.000000e+00 3.500000e+01 0.000000e+00
    endloop
  endfacet
  facet normal -1.000000e+00 0.000000e+00 0.000000e+00
    outer loop
      vertex 5.000000e+00 3.500000e+01 5.000000e+00
      vertex 5.000000e+00 5.000000e+00 0.000000e+00
      vertex 5.000000e+00 5.000000e+00 5.000000e+00
    endloop
  endfacet
  facet normal 0.000000e+00 0.000000e+00 1.000000e+00
    outer loop
      vertex 5.000000e+00 3.500000e+01 5.000000e+00
      vertex 1.500000e+01 5.000000e+00 5.000000e+00
      vertex 1.500000e+01 3.500000e+01 5.000000e+00
    endloop
  endfacet
  facet normal 0.000000e+00 0.000000e+00 1.000000e+00
    outer loop
      vertex 1.500000e+01 5.000000e+00 5.000000e+00
      vertex 5.000000e+00 3.500000e+01 5.000000e+00
      vertex 5.000000e+00 5.000000e+00 5.000000e+00
    endloop
  endfacet
  facet normal 0.000000e+00 0.000000e+00 1.000000e+00
    outer loop
      vertex 2.500000e+01 3.500000e+01 5.000000e+00
      vertex 3.500000e+01 5.000000e+00 5.000000e+00
      vertex 3.500000e+01 3.500000e+01 5.000000e+00
    endloop
  endfacet
  facet normal 0.000000e+00 0.000000e+00 1.000000e+00
    outer loop
      vertex 3.500000e+01 5.000000e+00 5.000000e+00
      vertex 2.500000e+01 3.500000e+01 5.000000e+00
      vertex 2.500000e+01 5.000000e+00 5.000000e+00
    endloop
  endfacet
  facet normal 1.000000e+00 0.000000e+00 0.000000e+00
    outer loop
      vertex 3.500000e+01 5.000000e+00 5.000000e+00
      vertex 3.500000e+01 3.500000e+01 0.000000e+00
      vertex 3.500000e+01 3.500000e+01 5.000000e+00
    endloop
  endfacet
  facet normal 1.000000e+00 0.000000e+00 0.000000e+00
    outer loop
      vertex 3.500000e+01 3.500000e+01 0.000000e+00
      vertex 3.500000e+01 5.000000e+00 5.000000e+00
      vertex 3.500000e+01 5.000000e+00 0.000000e+00
    endloop
  endfacet
  facet normal 0.000000e+00 1.000000e+00 0.000000e+00
    outer loop
      vertex 3.500000e+01 3.500000e+01 0.000000e+00
      vertex 2.500000e+01 3.500000e+01 5.000000e+00
      vertex 3.500000e+01 3.500000e+01 5.000000e+00
    endloop
  endfacet
  facet normal 0.000000e+00 1.000000e+00 0.000000e+00
    outer loop
      vertex 2.500000e+01 3.500000e+01 5.000000e+00
      vertex 3.500000e+01 3.500000e+01 0.000000e+00
      vertex 1.500000e+01 3.500000e+01 5.000000e+00
    endloop
  endfacet
  facet normal 0.000000e+00 1.000000e+00 0.000000e+00
    outer loop
      vertex 5.000000e+00 3.500000e+01 0.000000e+00
      vertex 1.500000e+01 3.500000e+01 5.000000e+00
      vertex 3.500000e+01 3.500000e+01 0.000000e+00
    endloop
  endfacet
  facet normal 0.000000e+00 1.000000e+00 0.000000e+00
    outer loop
      vertex 1.500000e+01 3.500000e+01 5.000000e+00
      vertex 5.000000e+00 3.500000e+01 0.000000e+00
      vertex 5.000000e+00 3.500000e+01 5.000000e+00
    endloop
  endfacet
  facet normal 0.000000e+00 1.000000e+00 0.000000e+00
    outer loop
      vertex 2.500000e+01 3.500000e+01 5.000000e+00
      vertex 1.500000e+01 3.500000e+01 1.500000e+01
      vertex 2.500000e+01 3.500000e+01 1.500000e+01
    endloop
  endfacet
  facet normal 0.000000e+00 1.000000e+00 0.000000e+00
    outer loop
      vertex 1.500000e+01 3.500000e+01 1.500000e+01
      vertex 2.500000e+01 3.500000e+01 5.000000e+00
      vertex 1.500000e+01 3.500000e+01 5.000000e+00
    endloop
  endfacet
  facet normal 0.000000e+00 0.000000e+00 -1.000000e+00
    outer loop
      vertex 5.000000e+00 5.000000e+00 0.000000e+00
      vertex 3.500000e+01 3.500000e+01 0.000000e+00
      vertex 3.500000e+01 5.000000e+00 0.000000e+00
    endloop
  endfacet
  facet normal 0.000000e+00 0.000000e+00 -1.000000e+00
    outer loop
      vertex 3.500000e+01 3.500000e+01 0.000000e+00
      vertex 5.000000e+00 5.000000e+00 0.000000e+00
      vertex 5.000000e+00 3.500000e+01 0.000000e+00
    endloop
  endfacet
  facet normal 0.000000e+00 -1.000000e+00 0.000000e+00
    outer loop
      vertex 5.000000e+00 5.000000e+00 0.000000e+00
      vertex 1.500000e+01 5.000000e+00 5.000000e+00
      vertex 5.000000e+00 5.000000e+00 5.000000e+00
    endloop
  endfacet
  facet normal 0.000000e+00 -1.000000e+00 0.000000e+00
    outer loop
      vertex 1.500000e+01 5.000000e+00 5.000000e+00
      vertex 5.000000e+00 5.000000e+00 0.000000e+00
      vertex 2.500000e+01 5.000000e+00 5.000000e+00
    endloop
  endfacet
  facet normal 0.000000e+00 -1.000000e+00 0.000000e+00
    outer loop
      vertex 3.500000e+01 5.000000e+00 0.000000e+00
      vertex 2.500000e+01 5.000000e+00 5.000000e+00
      vertex 5.000000e+00 5.000000e+00 0.000000e+00
    endloop
  endfacet
  facet normal 0.000000e+00 -1.000000e+00 0.000000e+00
    outer loop
      vertex 2.500000e+01 5.000000e+00 5.000000e+00
      vertex 3.500000e+01 5.000000e+00 0.000000e+00
      vertex 3.500000e+01 5.000000e+00 5.000000e+00
    endloop
  endfacet
  facet normal 0.000000e+00 -1.000000e+00 0.000000e+00
    outer loop
      vertex 1.500000e+01 5.000000e+00 5.000000e+00
      vertex 2.500000e+01 5.000000e+00 1.500000e+01
      vertex 1.500000e+01 5.000000e+00 1.500000e+01
    endloop
  endfacet
  facet normal 0.000000e+00 -1.000000e+00 0.000000e+00
    outer loop
      vertex 2.500000e+01 5.000000e+00 1.500000e+01
      vertex 1.500000e+01 5.000000e+00 5.000000e+00
      vertex 2.500000e+01 5.000000e+00 5.000000e+00
    endloop
  endfacet
  facet normal -1.000000e+00 0.000000e+00 0.000000e+00
    outer loop
      vertex 1.500000e+01 5.000000e+00 5.000000e+00
      vertex 1.500000e+01 3.500000e+01 1.500000e+01
      vertex 1.500000e+01 3.500000e+01 5.000000e+00
    endloop
  endfacet
  facet normal -1.000000e+00 0.000000e+00 0.000000e+00
    outer loop
      vertex 1.500000e+01 3.500000e+01 1.500000e+01
      vertex 1.500000e+01 5.000000e+00 5.000000e+00
      vertex 1.500000e+01 5.000000e+00 1.500000e+01
    endloop
  endfacet
  facet normal 0.000000e+00 0.000000e+00 1.000000e+00
    outer loop
      vertex 1.500000e+01 3.500000e+01 1.500000e+01
      vertex 2.500000e+01 5.000000e+00 1.500000e+01
      vertex 2.500000e+01 3.500000e+01 1.500000e+01
    endloop
  endfacet
  facet normal 0.000000e+00 0.000000e+00 1.000000e+00
    outer loop
      vertex 2.500000e+01 5.000000e+00 1.500000e+01
      vertex 1.500000e+01 3.500000e+01 1.500000e+01
      vertex 1.500000e+01 5.000000e+00 1.500000e+01
    endloop
  endfacet
  facet normal 1.000000e+00 0.000000e+00 0.000000e+00
    outer loop
      vertex 2.500000e+01 5.000000e+00 1.500000e+01
      vertex 2.500000e+01 3.500000e+01 5.000000e+00
      vertex 2.500000e+01 3.500000e+01 1.500000e+01
    endloop
  endfacet
  facet normal 1.000000e+00 0.000000e+00 0.000000e+00
    outer loop
      vertex 2.500000e+01 3.500000e+01 5.000000e+00
      vertex 2.500000e+01 5.000000e+00 1.500000e+01
      vertex 2.500000e+01 5.000000e+00 5.000000e+00
    endloop
  endfacet
  facet normal -1.000000e+00 0.000000e+00 0.000000e+00
    outer loop
      vertex -3.500000e+01 5.000000e+00 0.000000e+00
      vertex -3.500000e+01 3.500000e+01 5.000000e+00
      vertex -3.500000e+01 3.500000e+01 0.000000e+00
    endloop
  endfacet
  facet normal -1.000000e+00 0.000000e+00 0.000000e+00
    outer loop
      vertex -3.500000e+01 3.500000e+01 5.000000e+00
      vertex -3.500000e+01 5.000000e+00 0.000000e+00
      vertex -3.500000e+01 5.000000e+00 5.000000e+00
    endloop
  endfacet
  facet normal 0.000000e+00 0.000000e+00 1.000000e+00
    outer loop
      vertex -3.500000e+01 3.500000e+01 5.000000e+00
      vertex -2.500000e+01 5.000000e+00 5.000000e+00
      vertex -2.500000e+01 3.500000e+01 5.000000e+00
    endloop
  endfacet
  facet normal 0.000000e+00 0.000000e+00 1.000000e+00
    outer loop
      vertex -2.500000e+01 5.000000e+00 5.000000e+00
      vertex -3.500000e+01 3.500000e+01 5.000000e+00
      vertex -3.500000e+01 5.000000e+00 5.000000e+00
    endloop
  endfacet
  facet normal 0.000000e+00 0.000000e+00 1.000000e+00
    outer loop
      vertex -1.500000e+01 3.500000e+01 5.000000e+00
      vertex -5.000000e+00 5.000000e+00 5.000000e+00
      vertex -5.000000e+00 3.500000e+01 5.000000e+00
    endloop
  endfacet
  facet normal 0.000000e+00 0.000000e+00 1.000000e+00
    outer loop
      vertex -5.000000e+00 5.000000e+00 5.000000e+00
      vertex -1.500000e+01 3.500000e+01 5.000000e+00
      vertex -1.500000e+01 5.000000e+00 5.000000e+00
    endloop
  endfacet
  facet normal 1.000000e+00 0.000000e+00 0.000000e+00
    outer loop
      vertex -5.000000e+00 5.000000e+00 5.000000e+00
      vertex -5.000000e+00 3.500000e+01 0.000000e+00
      vertex -5.000000e+00 3.500000e+01 5.000000e+00
    endloop
  endfacet
  facet normal 1.000000e+00 0.000000e+00 0.000000e+00
    outer loop
      vertex -5.000000e+00 3.500000e+01 0.000000e+00
      vertex -5.000000e+00 5.000000e+00 5.000000e+00
      vertex -5.000000e+00 5.000000e+00 0.000000e+00
    endloop
  endfacet
  facet normal 0.000000e+00 0.000000e+00 -1.000000e+00
    outer loop
      vertex -3.500000e+01 5.000000e+00 0.000000e+00
      vertex -5.000000e+00 3.500000e+01 0.000000e+00
      vertex -5.000000e+00 5.000000e+00 0.000000e+00
    endloop
  endfacet
  facet normal 0.000000e+00 0.000000e+00 -1.000000e+00
    outer loop
      vertex -5.000000e+00 3.500000e+01 0.000000e+00
      vertex -3.500000e+01 5.000000e+00 0.000000e+00
      vertex -3.500000e+01 3.500000e+01 0.000000e+00
    endloop
  endfacet
  facet normal 0.000000e+00 -1.000000e+00 0.000000e+00
    outer loop
      vertex -3.500000e+01 5.000000e+00 0.000000e+00
      vertex -2.500000e+01 5.000000e+00 5.000000e+00
      vertex -3.500000e+01 5.000000e+00 5.000000e+00
    endloop
  endfacet
  facet normal 0.000000e+00 -1.000000e+00 0.000000e+00
    outer loop
      vertex -2.500000e+01 5.000000e+00 5.000000e+00
      vertex -3.500000e+01 5.000000e+00 0.000000e+00
      vertex -1.500000e+01 5.000000e+00 5.000000e+00
    endloop
  endfacet
  facet normal 0.000000e+00 -1.000000e+00 0.000000e+00
    outer loop
      vertex -5.000000e+00 5.000000e+00 0.000000e+00
      vertex -1.500000e+01 5.000000e+00 5.000000e+00
      vertex -3.500000e+01 5.000000e+00 0.000000e+00
    endloop
  endfacet
  facet normal 0.000000e+00 -1.000000e+00 0.000000e+00
    outer loop
      vertex -1.500000e+01 5.000000e+00 5.000000e+00
      vertex -5.000000e+00 5.000000e+00 0.000000e+00
      vertex -5.000000e+00 5.000000e+00 5.000000e+00
    endloop
  endfacet
  facet normal 0.000000e+00 -1.000000e+00 0.000000e+00
    outer loop
      vertex -2.500000e+01 5.000000e+00 5.000000e+00
      vertex -1.500000e+01 5.000000e+00 1.500000e+01
      vertex -2.500000e+01 5.000000e+00 1.500000e+01
    endloop
  endfacet
  facet normal 0.000000e+00 -1.000000e+00 0.000000e+00
    outer loop
      vertex -1.500000e+01 5.000000e+00 1.500000e+01
      vertex -2.500000e+01 5.000000e+00 5.000000e+00
      vertex -1.500000e+01 5.000000e+00 5.000000e+00
    endloop
  endfacet
  facet normal 0.000000e+00 1.000000e+00 0.000000e+00
    outer loop
      vertex -5.000000e+00 3.500000e+01 0.000000e+00
      vertex -1.500000e+01 3.500000e+01 5.000000e+00
      vertex -5.000000e+00 3.500000e+01 5.000000e+00
    endloop
  endfacet
  facet normal 0.000000e+00 1.000000e+00 0.000000e+00
    outer loop
      vertex -1.500000e+01 3.500000e+01 5.000000e+00
      vertex -5.000000e+00 3.500000e+01 0.000000e+00
      vertex -2.500000e+01 3.500000e+01 5.000000e+00
    endloop
  endfacet
  facet normal 0.000000e+00 1.000000e+00 0.000000e+00
    outer loop
      vertex -3.500000e+01 3.500000e+01 0.000000e+00
      vertex -2.500000e+01 3.500000e+01 5.000000e+00
      vertex -5.000000e+00 3.500000e+01 0.000000e+00
    endloop
  endfacet
  facet normal 0.000000e+00 1.000000e+00 0.000000e+00
    outer loop
      vertex -2.500000e+01 3.500000e+01 5.000000e+00
      vertex -3.500000e+01 3.500000e+01 0.000000e+00
      vertex -3.500000e+01 3.500000e+01 5.000000e+00
    endloop
  endfacet
  facet normal 0.000000e+00 1.000000e+00 0.000000e+00
    outer loop
      vertex -1.500000e+01 3.500000e+01 5.000000e+00
      vertex -2.500000e+01 3.500000e+01 1.500000e+01
      vertex -1.500000e+01 3.500000e+01 1.500000e+01
    endloop
  endfacet
  facet normal 0.000000e+00 1.000000e+00 0.000000e+00
    outer loop
      vertex -2.500000e+01 3.500000e+01 1.500000e+01
      vertex -1.500000e+01 3.500000e+01 5.000000e+00
      vertex -2.500000e+01 3.500000e+01 5.000000e+00
    endloop
  endfacet
  facet normal -1.000000e+00 0.000000e+00 0.000000e+00
    outer loop
      vertex -2.500000e+01 5.000000e+00 5.000000e+00
      vertex -2.500000e+01 3.500000e+01 1.500000e+01
      vertex -2.500000e+01 3.500000e+01 5.000000e+00
    endloop
  endfacet
  facet normal -1.000000e+00 0.000000e+00 0.000000e+00
    outer loop
      vertex -2.500000e+01 3.500000e+01 1.500000e+01
      vertex -2.500000e+01 5.000000e+00 5.000000e+00
      vertex -2.500000e+01 5.000000e+00 1.500000e+01
    endloop
  endfacet
  facet normal 0.000000e+00 0.000000e+00 1.000000e+00
    outer loop
      vertex -2.500000e+01 3.500000e+01 1.500000e+01
      vertex -1.500000e+01 5.000000e+00 1.500000e+01
      vertex -1.500000e+01 3.500000e+01 1.500000e+01
    endloop
  endfacet
  facet normal 0.000000e+00 0.000000e+00 1.000000e+00
    outer loop
      vertex -1.500000e+01 5.000000e+00 1.500000e+01
      vertex -2.500000e+01 3.500000e+01 1.500000e+01
      vertex -2.500000e+01 5.000000e+00 1.500000e+01
    endloop
  endfacet
  facet normal 1.000000e+00 0.000000e+00 0.000000e+00
    outer loop
      vertex -1.500000e+01 5.000000e+00 1.500000e+01
      vertex -1.500000e+01 3.500000e+01 5.000000e+00
      vertex -1.500000e+01 3.500000e+01 1.500000e+01
    endloop
  endfacet
  facet normal 1.000000e+00 0.000000e+00 0.000000e+00
    outer loop
      vertex -1.500000e+01 3.500000e+01 5.000000e+00
      vertex -1.500000e+01 5.000000e+00 1.500000e+01
      vertex -1.500000e+01 5.000000e+00 5.000000e+00
    endloop
  endfacet
  facet normal -1.000000e+00 0.000000e+00 0.000000e+00
    outer loop
      vertex -7.500000e+01 5.000000e+00 0.000000e+00
      vertex -7.500000e+01 3.500000e+01 5.000000e+00
      vertex -7.500000e+01 3.500000e+01 0.000000e+00
    endloop
  endfacet
  facet normal -1.000000e+00 0.000000e+00 0.000000e+00
    outer loop
      vertex -7.500000e+01 3.500000e+01 5.000000e+00
      vertex -7.500000e+01 5.000000e+00 0.000000e+00
      vertex -7.500000e+01 5.000000e+00 5.000000e+00
    endloop
  endfacet
  facet normal 0.000000e+00 0.000000e+00 1.000000e+00
    outer loop
      vertex -7.500000e+01 3.500000e+01 5.000000e+00
      vertex -6.500000e+01 5.000000e+00 5.000000e+00
      vertex -6.500000e+01 3.500000e+01 5.000000e+00
    endloop
  endfacet
  facet normal 0.000000e+00 0.000000e+00 1.000000e+00
    outer loop
      vertex -6.500000e+01 5.000000e+00 5.000000e+00
      vertex -7.500000e+01 3.500000e+01 5.000000e+00
      vertex -7.500000e+01 5.000000e+00 5.000000e+00
    endloop
  endfacet
  facet normal 0.000000e+00 0.000000e+00 1.000000e+00
    outer loop
      vertex -5.500000e+01 3.500000e+01 5.000000e+00
      vertex -4.500000e+01 5.000000e+00 5.000000e+00
      vertex -4.500000e+01 3.500000e+01 5.000000e+00
    endloop
  endfacet
  facet normal 0.000000e+00 0.000000e+00 1.000000e+00
    outer loop
      vertex -4.500000e+01 5.000000e+00 5.000000e+00
      vertex -5.500000e+01 3.500000e+01 5.000000e+00
      vertex -5.500000e+01 5.000000e+00 5.000000e+00
    endloop
  endfacet
  facet normal 1.000000e+00 0.000000e+00 0.000000e+00
    outer loop
      vertex -4.500000e+01 5.000000e+00 5.000000e+00
      vertex -4.500000e+01 3.500000e+01 0.000000e+00
      vertex -4.500000e+01 3.500000e+01 5.000000e+00
    endloop
  endfacet
  facet normal 1.000000e+00 0.000000e+00 0.000000e+00
    outer loop
      vertex -4.500000e+01 3.500000e+01 0.000000e+00
      vertex -4.500000e+01 5.000000e+00 5.000000e+00
      vertex -4.500000e+01 5.000000e+00 0.000000e+00
    endloop
  endfacet
  facet normal 0.000000e+00 1.000000e+00 0.000000e+00
    outer loop
      vertex -4.500000e+01 3.500000e+01 0.000000e+00
      vertex -5.500000e+01 3.500000e+01 5.000000e+00
      vertex -4.500000e+01 3.500000e+01 5.000000e+00
    endloop
  endfacet
  facet normal 0.000000e+00 1.000000e+00 0.000000e+00
    outer loop
      vertex -5.500000e+01 3.500000e+01 5.000000e+00
      vertex -4.500000e+01 3.500000e+01 0.000000e+00
      vertex -6.500000e+01 3.500000e+01 5.000000e+00
    endloop
  endfacet
  facet normal 0.000000e+00 1.000000e+00 0.000000e+00
    outer loop
      vertex -7.500000e+01 3.500000e+01 0.000000e+00
      vertex -6.500000e+01 3.500000e+01 5.000000e+00
      vertex -4.500000e+01 3.500000e+01 0.000000e+00
    endloop
  endfacet
  facet normal 0.000000e+00 1.000000e+00 0.000000e+00
    outer loop
      vertex -6.500000e+01 3.500000e+01 5.000000e+00
      vertex -7.500000e+01 3.500000e+01 0.000000e+00
      vertex -7.500000e+01 3.500000e+01 5.000000e+00
    endloop
  endfacet
  facet normal 0.000000e+00 1.000000e+00 0.000000e+00
    outer loop
      vertex -5.500000e+01 3.500000e+01 5.000000e+00
      vertex -6.500000e+01 3.500000e+01 1.500000e+01
      vertex -5.500000e+01 3.500000e+01 1.500000e+01
    endloop
  endfacet
  facet normal 0.000000e+00 1.000000e+00 0.000000e+00
    outer loop
      vertex -6.500000e+01 3.500000e+01 1.500000e+01
      vertex -5.500000e+01 3.500000e+01 5.000000e+00
      vertex -6.500000e+01 3.500000e+01 5.000000e+00
    endloop
  endfacet
  facet normal 0.000000e+00 0.000000e+00 -1.000000e+00
    outer loop
      vertex -7.500000e+01 5.000000e+00 0.000000e+00
      vertex -4.500000e+01 3.500000e+01 0.000000e+00
      vertex -4.500000e+01 5.000000e+00 0.000000e+00
    endloop
  endfacet
  facet normal 0.000000e+00 0.000000e+00 -1.000000e+00
    outer loop
      vertex -4.500000e+01 3.500000e+01 0.000000e+00
      vertex -7.500000e+01 5.000000e+00 0.000000e+00
      vertex -7.500000e+01 3.500000e+01 0.000000e+00
    endloop
  endfacet
  facet normal 0.000000e+00 -1.000000e+00 0.000000e+00
    outer loop
      vertex -7.500000e+01 5.000000e+00 0.000000e+00
      vertex -6.500000e+01 5.000000e+00 5.000000e+00
      vertex -7.500000e+01 5.000000e+00 5.000000e+00
    endloop
  endfacet
  facet normal 0.000000e+00 -1.000000e+00 0.000000e+00
    outer loop
      vertex -6.500000e+01 5.000000e+00 5.000000e+00
      vertex -7.500000e+01 5.000000e+00 0.000000e+00
      vertex -5.500000e+01 5.000000e+00 5.000000e+00
    endloop
  endfacet
  facet normal 0.000000e+00 -1.000000e+00 0.000000e+00
    outer loop
      vertex -4.500000e+01 5.000000e+00 0.000000e+00
      vertex -5.500000e+01 5.000000e+00 5.000000e+00
      vertex -7.500000e+01 5.000000e+00 0.000000e+00
    endloop
  endfacet
  facet normal 0.000000e+00 -1.000000e+00 0.000000e+00
    outer loop
      vertex -5.500000e+01 5.000000e+00 5.000000e+00
      vertex -4.500000e+01 5.000000e+00 0.000000e+00
      vertex -4.500000e+01 5.000000e+00 5.000000e+00
    endloop
  endfacet
  facet normal 0.000000e+00 -1.000000e+00 0.000000e+00
    outer loop
      vertex -6.500000e+01 5.000000e+00 5.000000e+00
      vertex -5.500000e+01 5.000000e+00 1.500000e+01
      vertex -6.500000e+01 5.000000e+00 1.500000e+01
    endloop
  endfacet
  facet normal 0.000000e+00 -1.000000e+00 0.000000e+00
    outer loop
      vertex -5.500000e+01 5.000000e+00 1.500000e+01
      vertex -6.500000e+01 5.000000e+00 5.000000e+00
      vertex -5.500000e+01 5.000000e+00 5.000000e+00
    endloop
  endfacet
  facet normal -1.000000e+00 0.000000e+00 0.000000e+00
    outer loop
      vertex -6.500000e+01 5.000000e+00 5.000000e+00
      vertex -6.500000e+01 3.500000e+01 1.500000e+01
      vertex -6.500000e+01 3.500000e+01 5.000000e+00
    endloop
  endfacet
  facet normal -1.000000e+00 0.000000e+00 0.000000e+00
    outer loop
      vertex -6.500000e+01 3.500000e+01 1.500000e+01
      vertex -6.500000e+01 5.000000e+00 5.000000e+00
      vertex -6.500000e+01 5.000000e+00 1.500000e+01
    endloop
  endfacet
  facet normal 0.000000e+00 0.000000e+00 1.000000e+00
    outer loop
      vertex -6.500000e+01 3.500000e+01 1.500000e+01
      vertex -5.500000e+01 5.000000e+00 1.500000e+01
      vertex -5.500000e+01 3.500000e+01 1.500000e+01
    endloop
  endfacet
  facet normal 0.000000e+00 0.000000e+00 1.000000e+00
    outer loop
      vertex -5.500000e+01 5.000000e+00 1.500000e+01
      vertex -6.500000e+01 3.500000e+01 1.500000e+01
      vertex -6.500000e+01 5.000000e+00 1.500000e+01
    endloop
  endfacet
  facet normal 1.000000e+00 0.000000e+00 0.000000e+00
    outer loop
      vertex -5.500000e+01 5.000000e+00 1.500000e+01
      vertex -5.500000e+01 3.500000e+01 5.000000e+00
      vertex -5.500000e+01 3.500000e+01 1.500000e+01
    endloop
  endfacet
  facet normal 1.000000e+00 0.000000e+00 0.000000e+00
    outer loop
      vertex -5.500000e+01 3.500000e+01 5.000000e+00
      vertex -5.500000e+01 5.000000e+00 1.500000e+01
      vertex -5.500000e+01 5.000000e+00 5.000000e+00
    endloop
  endfacet
  facet normal -1.000000e+00 0.000000e+00 0.000000e+00
    outer loop
      vertex 4.500000e+01 5.000000e+00 0.000000e+00
      vertex 4.500000e+01 3.500000e+01 5.000000e+00
      vertex 4.500000e+01 3.500000e+01 0.000000e+00
    endloop
  endfacet
  facet normal -1.000000e+00 0.000000e+00 0.000000e+00
    outer loop
      vertex 4.500000e+01 3.500000e+01 5.000000e+00
      vertex 4.500000e+01 5.000000e+00 0.000000e+00
      vertex 4.500000e+01 5.000000e+00 5.000000e+00
    endloop
  endfacet
  facet normal 0.000000e+00 0.000000e+00 1.000000e+00
    outer loop
      vertex 4.500000e+01 3.500000e+01 5.000000e+00
      vertex 5.500000e+01 5.000000e+00 5.000000e+00
      vertex 5.500000e+01 3.500000e+01 5.000000e+00
    endloop
  endfacet
  facet normal 0.000000e+00 0.000000e+00 1.000000e+00
    outer loop
      vertex 5.500000e+01 5.000000e+00 5.000000e+00
      vertex 4.500000e+01 3.500000e+01 5.000000e+00
      vertex 4.500000e+01 5.000000e+00 5.000000e+00
    endloop
  endfacet
  facet normal 0.000000e+00 0.000000e+00 1.000000e+00
    outer loop
      vertex 6.500000e+01 3.500000e+01 5.000000e+00
      vertex 7.500000e+01 5.000000e+00 5.000000e+00
      vertex 7.500000e+01 3.500000e+01 5.000000e+00
    endloop
  endfacet
  facet normal 0.000000e+00 0.000000e+00 1.000000e+00
    outer loop
      vertex 7.500000e+01 5.000000e+00 5.000000e+00
      vertex 6.500000e+01 3.500000e+01 5.000000e+00
      vertex 6.500000e+01 5.000000e+00 5.000000e+00
    endloop
  endfacet
  facet normal 1.000000e+00 0.000000e+00 0.000000e+00
    outer loop
      vertex 7.500000e+01 5.000000e+00 5.000000e+00
      vertex 7.500000e+01 3.500000e+01 0.000000e+00
      vertex 7.500000e+01 3.500000e+01 5.000000e+00
    endloop
  endfacet
  facet normal 1.000000e+00 0.000000e+00 0.000000e+00
    outer loop
      vertex 7.500000e+01 3.500000e+01 0.000000e+00
      vertex 7.500000e+01 5.000000e+00 5.000000e+00
      vertex 7.500000e+01 5.000000e+00 0.000000e+00
    endloop
  endfacet
  facet normal 0.000000e+00 1.000000e+00 0.000000e+00
    outer loop
      vertex 7.500000e+01 3.500000e+01 0.000000e+00
      vertex 6.500000e+01 3.500000e+01 5.000000e+00
      vertex 7.500000e+01 3.500000e+01 5.000000e+00
    endloop
  endfacet
  facet normal 0.000000e+00 1.000000e+00 0.000000e+00
    outer loop
      vertex 6.500000e+01 3.500000e+01 5.000000e+00
      vertex 7.500000e+01 3.500000e+01 0.000000e+00
      vertex 5.500000e+01 3.500000e+01 5.000000e+00
    endloop
  endfacet
  facet normal 0.000000e+00 1.000000e+00 0.000000e+00
    outer loop
      vertex 4.500000e+01 3.500000e+01 0.000000e+00
      vertex 5.500000e+01 3.500000e+01 5.000000e+00
      vertex 7.500000e+01 3.500000e+01 0.000000e+00
    endloop
  endfacet
  facet normal 0.000000e+00 1.000000e+00 0.000000e+00
    outer loop
      vertex 5.500000e+01 3.500000e+01 5.000000e+00
      vertex 4.500000e+01 3.500000e+01 0.000000e+00
      vertex 4.500000e+01 3.500000e+01 5.000000e+00
    endloop
  endfacet
  facet normal 0.000000e+00 1.000000e+00 0.000000e+00
    outer loop
      vertex 6.500000e+01 3.500000e+01 5.000000e+00
      vertex 5.500000e+01 3.500000e+01 1.500000e+01
      vertex 6.500000e+01 3.500000e+01 1.500000e+01
    endloop
  endfacet
  facet normal 0.000000e+00 1.000000e+00 0.000000e+00
    outer loop
      vertex 5.500000e+01 3.500000e+01 1.500000e+01
      vertex 6.500000e+01 3.500000e+01 5.000000e+00
      vertex 5.500000e+01 3.500000e+01 5.000000e+00
    endloop
  endfacet
  facet normal 0.000000e+00 0.000000e+00 -1.000000e+00
    outer loop
      vertex 4.500000e+01 5.000000e+00 0.000000e+00
      vertex 7.500000e+01 3.500000e+01 0.000000e+00
      vertex 7.500000e+01 5.000000e+00 0.000000e+00
    endloop
  endfacet
  facet normal 0.000000e+00 0.000000e+00 -1.000000e+00
    outer loop
      vertex 7.500000e+01 3.500000e+01 0.000000e+00
      vertex 4.500000e+01 5.000000e+00 0.000000e+00
      vertex 4.500000e+01 3.500000e+01 0.000000e+00
    endloop
  endfacet
  facet normal 0.000000e+00 -1.000000e+00 0.000000e+00
    outer loop
      vertex 4.500000e+01 5.000000e+00 0.000000e+00
      vertex 5.500000e+01 5.000000e+00 5.000000e+00
      vertex 4.500000e+01 5.000000e+00 5.000000e+00
    endloop
  endfacet
  facet normal 0.000000e+00 -1.000000e+00 0.000000e+00
    outer loop
      vertex 5.500000e+01 5.000000e+00 5.000000e+00
      vertex 4.500000e+01 5.000000e+00 0.000000e+00
      vertex 6.500000e+01 5.000000e+00 5.000000e+00
    endloop
  endfacet
  facet normal 0.000000e+00 -1.000000e+00 0.000000e+00
    outer loop
      vertex 7.500000e+01 5.000000e+00 0.000000e+00
      vertex 6.500000e+01 5.000000e+00 5.000000e+00
      vertex 4.500000e+01 5.000000e+00 0.000000e+00
    endloop
  endfacet
  facet normal 0.000000e+00 -1.000000e+00 0.000000e+00
    outer loop
      vertex 6.500000e+01 5.000000e+00 5.000000e+00
      vertex 7.500000e+01 5.000000e+00 0.000000e+00
      vertex 7.500000e+01 5.000000e+00 5.000000e+00
    endloop
  endfacet
  facet normal 0.000000e+00 -1.000000e+00 0.000000e+00
    outer loop
      vertex 5.500000e+01 5.000000e+00 5.000000e+00
      vertex 6.500000e+01 5.000000e+00 1.500000e+01
      vertex 5.500000e+01 5.000000e+00 1.500000e+01
    endloop
  endfacet
  facet normal 0.000000e+00 -1.000000e+00 0.000000e+00
    outer loop
      vertex 6.500000e+01 5.000000e+00 1.500000e+01
      vertex 5.500000e+01 5.000000e+00 5.000000e+00
      vertex 6.500000e+01 5.000000e+00 5.000000e+00
    endloop
  endfacet
  facet normal -1.000000e+00 0.000000e+00 0.000000e+00
    outer loop
      vertex 5.500000e+01 5.000000e+00 5.000000e+00
      vertex 5.500000e+01 3.500000e+01 1.500000e+01
      vertex 5.500000e+01 3.500000e+01 5.000000e+00
    endloop
  endfacet
  facet normal -1.000000e+00 0.000000e+00 0.000000e+00
    outer loop
      vertex 5.500000e+01 3.500000e+01 1.500000e+01
      vertex 5.500000e+01 5.000000e+00 5.000000e+00
      vertex 5.500000e+01 5.000000e+00 1.500000e+01
    endloop
  endfacet
  facet normal 0.000000e+00 0.000000e+00 1.000000e+00
    outer loop
      vertex 5.500000e+01 3.500000e+01 1.500000e+01
      vertex 6.500000e+01 5.000000e+00 1.500000e+01
      vertex 6.500000e+01 3.500000e+01 1.500000e+01
    endloop
  endfacet
  facet normal 0.000000e+00 0.000000e+00 1.000000e+00
    outer loop
      vertex 6.500000e+01 5.000000e+00 1.500000e+01
      vertex 5.500000e+01 3.500000e+01 1.500000e+01
      vertex 5.500000e+01 5.000000e+00 1.500000e+01
    endloop
  endfacet
  facet normal 1.000000e+00 0.000000e+00 0.000000e+00
    outer loop
      vertex 6.500000e+01 5.000000e+00 1.500000e+01
      vertex 6.500000e+01 3.500000e+01 5.000000e+00
      vertex 6.500000e+01 3.500000e+01 1.500000e+01
    endloop
  endfacet
  facet normal 1.000000e+00 0.000000e+00 0.000000e+00
    outer loop
      vertex 6.500000e+01 3.500000e+01 5.000000e+00
      vertex 6.500000e+01 5.000000e+00 1.500000e+01
      vertex 6.500000e+01 5.000000e+00 5.000000e+00
    endloop
  endfacet
endsolid Default
